<?xml version="1.0" encoding="UTF-8" standalone="no"?>
<!-- Created with Inkscape (http://www.inkscape.org/) -->

<svg
   width="128"
   height="128"
   viewBox="0 0 33.866667 33.866667"
   version="1.1"
   id="svg185"
   inkscape:version="1.2.2 (732a01da63, 2022-12-09, custom)"
   sodipodi:docname="S4BLogo.svg"
   xmlns:inkscape="http://www.inkscape.org/namespaces/inkscape"
   xmlns:sodipodi="http://sodipodi.sourceforge.net/DTD/sodipodi-0.dtd"
   xmlns="http://www.w3.org/2000/svg"
   xmlns:svg="http://www.w3.org/2000/svg">
  <sodipodi:namedview
     id="namedview187"
     pagecolor="#ffffff"
     bordercolor="#666666"
     borderopacity="1.0"
     inkscape:showpageshadow="2"
     inkscape:pageopacity="0.0"
     inkscape:pagecheckerboard="0"
     inkscape:deskcolor="#d1d1d1"
     inkscape:document-units="mm"
     showgrid="false"
     inkscape:zoom="3.0075196"
     inkscape:cx="86.948727"
     inkscape:cy="96.923724"
     inkscape:window-width="1920"
     inkscape:window-height="1016"
     inkscape:window-x="0"
     inkscape:window-y="27"
     inkscape:window-maximized="1"
     inkscape:current-layer="layer1" />
  <defs
     id="defs182" />
  <g
     inkscape:label="Layer 1"
     inkscape:groupmode="layer"
     id="layer1">
    <ellipse
       style="fill:none;fill-opacity:1;stroke:#1abc9c;stroke-width:1.41833;stroke-opacity:1"
       id="path572"
       cx="16.933332"
       cy="16.933332"
       rx="15.701096"
       ry="15.69526" />
    <g
       aria-label="S4B"
       transform="matrix(1.2267358,0,0,1.2262799,-3.8355725,-0.43634694)"
       id="text360"
       style="font-size:13.8073px;line-height:1.25;fill:#1abc9c;fill-opacity:1;stroke-width:0.345182">
      <path
         d="m 11.621322,10.92672 q -0.51087,-0.262339 -1.118392,-0.455641 -0.6075208,-0.193302 -1.1874274,-0.193302 -0.8008234,0 -1.2840789,0.372797 -0.4694482,0.372797 -0.4694482,0.994125 0,0.469449 0.3037606,0.800824 0.3037606,0.317568 0.8008234,0.552292 0.4970628,0.234724 1.0355475,0.441833 0.469448,0.179495 0.925089,0.400412 0.455641,0.220917 0.814631,0.552292 0.372797,0.331375 0.579906,0.814631 0.220917,0.483255 0.220917,1.201235 0,0.787016 -0.400412,1.435959 -0.386604,0.648943 -1.118391,1.02174 -0.7317867,0.372797 -1.7397196,0.372797 -0.6627504,0 -1.2702716,-0.15188 Q 7.1201419,18.934954 6.6092719,18.70023 6.0984018,18.451698 5.6979901,18.189359 L 6.291704,17.140005 q 0.3313752,0.234724 0.7594014,0.455641 0.4280263,0.207109 0.8974745,0.345182 0.4694482,0.124266 0.9112818,0.124266 0.4694482,0 0.9250891,-0.165688 0.4694482,-0.179495 0.7732092,-0.538485 0.30376,-0.358989 0.30376,-0.952703 0,-0.51087 -0.276146,-0.842245 Q 10.323435,15.22079 9.8816019,14.986066 9.4397683,14.737535 8.9427055,14.544232 8.4732573,14.364737 7.9900018,14.157628 7.5067463,13.936711 7.0925273,13.632951 6.6783084,13.315383 6.429777,12.859742 6.1812456,12.404101 6.1812456,11.755158 q 0,-0.787016 0.3727971,-1.366923 Q 6.940647,9.7945213 7.6033974,9.4631461 8.2661478,9.1179636 9.1222004,9.090349 q 0.9665106,0 1.6982976,0.2347241 0.745594,0.2347241 1.311694,0.5799066 z"
         style="font-family:'Josefin Sans';-inkscape-font-specification:'Josefin Sans';fill:#1abc9c;fill-opacity:1"
         id="path305" />
      <path
         d="m 13.23676,16.932895 v -0.01381 l 5.536727,-6.9864937 h 0.01381 v 5.9785607 h 1.173621 v 1.02174 h -1.173621 v 2.195361 h -1.339308 v -2.195361 z m 4.29407,-3.976502 -2.333434,3.023799 -0.207109,-0.06904 h 2.457699 v -3.203293 z"
         style="font-family:'Josefin Sans';-inkscape-font-specification:'Josefin Sans';fill:#1abc9c;fill-opacity:1"
         id="path307" />
      <path
         d="m 24.448285,9.1455782 q 1.504995,0 2.361048,0.6213285 0.86986,0.6075213 0.86986,1.9054073 0,0.787016 -0.35899,1.366923 -0.35899,0.579906 -1.007933,0.911281 -0.635136,0.331376 -1.504996,0.372798 l -0.193302,-0.690365 q 1.007933,0.02761 1.808756,0.358989 0.800824,0.331376 1.270272,0.925089 0.469448,0.593714 0.469448,1.408345 0,0.745594 -0.276146,1.284079 -0.276146,0.524677 -0.745594,0.86986 -0.469448,0.331375 -1.063162,0.497063 -0.593714,0.15188 -1.22885,0.15188 H 21.880127 V 9.1455782 Z m 0.276145,4.3769138 q 0.828438,0 1.201236,-0.455641 0.372797,-0.469448 0.372797,-1.132198 0,-0.787016 -0.483256,-1.146006 -0.483255,-0.35899 -1.297886,-0.35899 h -1.297886 v 3.092835 z m 0.05523,4.363107 q 0.552292,0 1.007933,-0.165688 0.469448,-0.165687 0.731786,-0.51087 0.276146,-0.345182 0.276146,-0.86986 0,-0.579906 -0.317567,-0.911281 -0.303761,-0.331376 -0.787017,-0.469449 -0.483255,-0.15188 -0.994125,-0.15188 h -1.477381 v 3.079028 z"
         style="font-family:'Josefin Sans';-inkscape-font-specification:'Josefin Sans';fill:#1abc9c;fill-opacity:1"
         id="path309" />
    </g>
    <g
       aria-label="Consulting"
       transform="matrix(1.0001859,0,0,0.99981416,43.362376,-3.196057)"
       id="text7071"
       style="font-size:5.08923px;line-height:1.25;fill:#000000;fill-opacity:1;stroke-width:0.12723">
      <path
         d="m 7.3471948,24.063916 q -0.061071,0.05089 -0.2290154,0.137409 -0.1628554,0.08652 -0.4020492,0.152677 -0.2391938,0.06616 -0.5292799,0.06107 Q 5.7440873,24.404895 5.3929304,24.257307 5.0468628,24.10463 4.8025797,23.845079 4.5633859,23.585528 4.4361552,23.249639 4.3089244,22.91375 4.3089244,22.532058 q 0,-0.427495 0.1272308,-0.783742 0.1323199,-0.356246 0.3715138,-0.615796 0.244283,-0.259551 0.5801722,-0.40205 0.3358892,-0.142498 0.7430276,-0.142498 0.376603,0 0.6666891,0.101785 0.2900861,0.101784 0.4732984,0.218836 l -0.2900861,0.697225 q -0.1272308,-0.0967 -0.3409784,-0.19848 -0.2086585,-0.106874 -0.4834769,-0.106874 -0.2137476,0 -0.4122276,0.09161 -0.1933908,0.08652 -0.3460677,0.249373 -0.1475876,0.162855 -0.2341045,0.381692 -0.086517,0.213748 -0.086517,0.468209 0,0.269729 0.076338,0.493655 0.081428,0.223926 0.2290154,0.386782 0.1475876,0.157766 0.3511568,0.244283 0.2086585,0.08652 0.4682092,0.08652 0.3002646,0 0.5140122,-0.0967 0.2137477,-0.0967 0.3257108,-0.203569 z"
         style="font-weight:bold;font-family:'Josefin Sans';-inkscape-font-specification:'Josefin Sans Bold';fill:#000000;fill-opacity:1"
         id="path312" />
      <path
         d="m 7.7950398,23.234372 q 0,-0.340979 0.1577661,-0.610708 0.1628554,-0.269729 0.4529415,-0.422406 0.2900861,-0.157766 0.6666891,-0.157766 0.3816923,0 0.6615999,0.157766 0.2799076,0.152677 0.4274956,0.422406 0.152677,0.269729 0.152677,0.610708 0,0.340978 -0.152677,0.615796 -0.147588,0.26973 -0.4274956,0.427496 -0.2799076,0.157766 -0.6717783,0.157766 -0.3664246,0 -0.6565107,-0.142499 Q 8.1207505,24.150433 7.9578952,23.880704 7.7950398,23.610975 7.7950398,23.234372 Z m 0.7175814,0.0051 q 0,0.173034 0.071249,0.315532 0.071249,0.137409 0.1933908,0.218837 0.1221415,0.08143 0.2748184,0.08143 0.1679446,0 0.2900861,-0.08143 0.1221415,-0.08143 0.1883015,-0.218837 0.06616,-0.142498 0.06616,-0.315532 0,-0.178123 -0.06616,-0.315532 -0.06616,-0.13741 -0.1883015,-0.218837 -0.1221415,-0.08143 -0.2900861,-0.08143 -0.1526769,0 -0.2748184,0.08143 -0.1221415,0.08143 -0.1933908,0.218837 -0.071249,0.137409 -0.071249,0.315532 z"
         style="font-weight:bold;font-family:'Josefin Sans';-inkscape-font-specification:'Josefin Sans Bold';fill:#000000;fill-opacity:1"
         id="path314" />
      <path
         d="m 11.520352,22.150366 0.05598,0.39696 -0.01018,-0.03563 q 0.117052,-0.208659 0.3308,-0.335889 0.213748,-0.13232 0.524191,-0.13232 0.315532,0 0.52419,0.188301 0.213748,0.183213 0.218837,0.478388 v 1.664178 h -0.712492 v -1.399538 q -0.0051,-0.147588 -0.08143,-0.234105 -0.07125,-0.09161 -0.244283,-0.09161 -0.162855,0 -0.284997,0.106874 -0.122141,0.106874 -0.188301,0.290086 -0.06616,0.183212 -0.06616,0.422406 V 24.37435 H 10.87402 v -2.223993 z"
         style="font-weight:bold;font-family:'Josefin Sans';-inkscape-font-specification:'Josefin Sans Bold';fill:#000000;fill-opacity:1"
         id="path316" />
      <path
         d="m 14.619692,24.420162 q -0.274818,0 -0.514012,-0.0967 -0.234104,-0.0967 -0.39696,-0.269729 l 0.295176,-0.391871 q 0.162855,0.147588 0.300264,0.213748 0.142499,0.06107 0.254462,0.06107 0.08652,0 0.152677,-0.01527 0.07125,-0.02036 0.111963,-0.05598 0.04071,-0.04071 0.04071,-0.101784 0,-0.08652 -0.07125,-0.13741 -0.06616,-0.05089 -0.173034,-0.08143 -0.106873,-0.03562 -0.229015,-0.07125 -0.305354,-0.0967 -0.442763,-0.279907 -0.13232,-0.188302 -0.13232,-0.407139 0,-0.167944 0.08652,-0.335889 0.09161,-0.173034 0.284997,-0.284997 0.19848,-0.117052 0.508923,-0.117052 0.279908,0 0.473298,0.05598 0.193391,0.05598 0.366425,0.183212 l -0.269729,0.417317 q -0.0967,-0.07634 -0.218837,-0.127231 -0.117053,-0.05598 -0.218837,-0.06107 -0.09161,-0.0051 -0.157766,0.02036 -0.06107,0.02545 -0.0967,0.06616 -0.03562,0.04071 -0.03562,0.08652 -0.0051,0.09669 0.07125,0.152677 0.08143,0.05598 0.203569,0.08652 0.122142,0.03054 0.239194,0.07125 0.162855,0.05089 0.279908,0.137409 0.117052,0.08652 0.178123,0.208659 0.06616,0.117052 0.06616,0.284997 0,0.203569 -0.106874,0.386781 -0.101785,0.178123 -0.315532,0.290086 -0.208659,0.111963 -0.53437,0.111963 z"
         style="font-weight:bold;font-family:'Josefin Sans';-inkscape-font-specification:'Josefin Sans Bold';fill:#000000;fill-opacity:1"
         id="path318" />
      <path
         d="m 16.889482,24.481233 q -0.300265,0 -0.503834,-0.183212 -0.203569,-0.188302 -0.213748,-0.483477 v -1.664178 h 0.712492 v 1.399538 q 0.01018,0.147588 0.07634,0.239194 0.06616,0.08652 0.223926,0.08652 0.157766,0 0.269729,-0.106874 0.117053,-0.106874 0.178123,-0.290086 0.06616,-0.188302 0.06616,-0.422406 v -0.905883 h 0.712493 v 2.223993 H 17.76483 l -0.05598,-0.407138 0.01018,0.0458 q -0.07634,0.137409 -0.193391,0.244283 -0.117052,0.106874 -0.279907,0.162855 -0.157766,0.06107 -0.356246,0.06107 z"
         style="font-weight:bold;font-family:'Josefin Sans';-inkscape-font-specification:'Josefin Sans Bold';fill:#000000;fill-opacity:1"
         id="path320" />
      <path
         d="m 19.144009,20.358957 h 0.712492 v 4.015402 h -0.712492 z"
         style="font-weight:bold;font-family:'Josefin Sans';-inkscape-font-specification:'Josefin Sans Bold';fill:#000000;fill-opacity:1"
         id="path322" />
      <path
         d="m 20.798001,21.173233 h 0.712492 v 0.966954 h 0.539459 v 0.554726 h -0.539459 v 1.679446 h -0.712492 v -1.679446 h -0.346068 v -0.554726 h 0.346068 z"
         style="font-weight:bold;font-family:'Josefin Sans';-inkscape-font-specification:'Josefin Sans Bold';fill:#000000;fill-opacity:1"
         id="path324" />
      <path
         d="m 22.594494,22.150366 h 0.712493 v 2.223993 h -0.712493 z m -0.01527,-0.788831 q 0,-0.157766 0.122141,-0.259551 0.127231,-0.101784 0.269729,-0.101784 0.142499,0 0.259551,0.101784 0.122142,0.101785 0.122142,0.259551 0,0.157766 -0.122142,0.259551 -0.117052,0.0967 -0.259551,0.0967 -0.142498,0 -0.269729,-0.0967 -0.122141,-0.101785 -0.122141,-0.259551 z"
         style="font-weight:bold;font-family:'Josefin Sans';-inkscape-font-specification:'Josefin Sans Bold';fill:#000000;fill-opacity:1"
         id="path326" />
      <path
         d="m 24.68616,22.150366 0.05598,0.39696 -0.01018,-0.03563 q 0.117052,-0.208659 0.3308,-0.335889 0.213748,-0.13232 0.524191,-0.13232 0.315532,0 0.52419,0.188301 0.213748,0.183213 0.218837,0.478388 v 1.664178 h -0.712492 v -1.399538 q -0.0051,-0.147588 -0.08143,-0.234105 -0.07125,-0.09161 -0.244283,-0.09161 -0.162855,0 -0.284996,0.106874 -0.122142,0.106874 -0.188302,0.290086 -0.06616,0.183212 -0.06616,0.422406 v 0.905883 h -0.712492 v -2.223993 z"
         style="font-weight:bold;font-family:'Josefin Sans';-inkscape-font-specification:'Josefin Sans Bold';fill:#000000;fill-opacity:1"
         id="path328" />
      <path
         d="m 28.212996,25.49399 q -0.300264,0 -0.508923,-0.07125 -0.203569,-0.07125 -0.346067,-0.173034 -0.142499,-0.101785 -0.254462,-0.193391 l 0.417317,-0.488566 q 0.117052,0.106874 0.269729,0.203569 0.157766,0.101785 0.412228,0.101785 0.167945,0 0.310443,-0.06107 0.147588,-0.05598 0.234105,-0.167945 0.09161,-0.111963 0.09161,-0.279907 v -0.488566 l 0.02545,0.12723 q -0.08143,0.173034 -0.295175,0.305354 -0.213748,0.127231 -0.559816,0.127231 -0.300264,0 -0.559815,-0.152677 -0.254462,-0.157766 -0.407138,-0.422406 -0.152677,-0.269729 -0.152677,-0.610708 0,-0.351157 0.162855,-0.620886 0.162855,-0.274818 0.422406,-0.432584 0.259551,-0.157766 0.549637,-0.157766 0.290086,0 0.498744,0.08652 0.213748,0.08143 0.320622,0.20357 l -0.02545,0.06616 0.07634,-0.244283 h 0.656511 v 2.223993 q 0,0.325711 -0.183212,0.575083 -0.183213,0.254462 -0.488566,0.39696 -0.300265,0.147588 -0.66669,0.147588 z m -0.605618,-2.264708 q 0,0.178123 0.08143,0.320622 0.08143,0.142498 0.218837,0.223926 0.142498,0.08143 0.315532,0.08143 0.147588,0 0.259551,-0.03562 0.117052,-0.04071 0.203569,-0.111963 0.09161,-0.07634 0.152677,-0.188302 v -0.544547 q -0.0458,-0.111963 -0.137409,-0.188302 -0.09161,-0.08143 -0.213748,-0.122141 -0.117052,-0.0458 -0.26464,-0.0458 -0.173034,0 -0.315532,0.08143 -0.13741,0.07634 -0.218837,0.213748 -0.08143,0.137409 -0.08143,0.315532 z"
         style="font-weight:bold;font-family:'Josefin Sans';-inkscape-font-specification:'Josefin Sans Bold';fill:#000000;fill-opacity:1"
         id="path330" />
    </g>
  </g>
</svg>
